<svg id="icSearch" xmlns="http://www.w3.org/2000/svg" width="24" height="24" viewBox="0 0 24 24">
  <path id="Path" d="M0,0H24V24H0Z" fill="#253b40" opacity="0"/>
  <g id="União_8" data-name="União 8" transform="translate(8615 -8019)" fill="none">
    <path d="M-8595.17,8040.036l-7.072-7.072a.491.491,0,0,1-.119-.192A5.972,5.972,0,0,1-8606,8034a6,6,0,0,1-6-6,6,6,0,0,1,6-6,6,6,0,0,1,6,6,5.986,5.986,0,0,1-1.674,4.16.493.493,0,0,1,.14.1l7.071,7.072a.5.5,0,0,1,0,.707.5.5,0,0,1-.354.146A.5.5,0,0,1-8595.17,8040.036Z" stroke="none"/>
    <path d="M -8606.0009765625 8033.0009765625 C -8604.8935546875 8033.0009765625 -8603.845703125 8032.64697265625 -8602.96875 8031.97705078125 L -8602.6611328125 8031.7421875 L -8602.396484375 8031.46630859375 C -8601.49609375 8030.529296875 -8601.0009765625 8029.2978515625 -8601.0009765625 8027.9990234375 C -8601.0009765625 8025.2421875 -8603.244140625 8022.9990234375 -8606.0009765625 8022.9990234375 C -8608.7578125 8022.9990234375 -8611 8025.2421875 -8611 8027.9990234375 C -8611 8030.75732421875 -8608.7578125 8033.0009765625 -8606.0009765625 8033.0009765625 M -8594.8173828125 8040.18115234375 C -8594.9453125 8040.18115234375 -8595.0732421875 8040.1328125 -8595.169921875 8040.03564453125 L -8602.2421875 8032.96337890625 C -8602.2978515625 8032.90771484375 -8602.337890625 8032.841796875 -8602.361328125 8032.771484375 C -8603.37109375 8033.54296875 -8604.6318359375 8034.0009765625 -8606.0009765625 8034.0009765625 C -8609.3134765625 8034.0009765625 -8612 8031.314453125 -8612 8027.9990234375 C -8612 8024.685546875 -8609.3134765625 8021.9990234375 -8606.0009765625 8021.9990234375 C -8602.6875 8021.9990234375 -8600.0009765625 8024.685546875 -8600.0009765625 8027.9990234375 C -8600.0009765625 8029.6142578125 -8600.638671875 8031.07958984375 -8601.6748046875 8032.15869140625 C -8601.6240234375 8032.18212890625 -8601.5771484375 8032.21533203125 -8601.53515625 8032.2568359375 L -8594.4638671875 8039.32861328125 C -8594.2685546875 8039.5234375 -8594.2685546875 8039.8408203125 -8594.4638671875 8040.03564453125 C -8594.5615234375 8040.1328125 -8594.689453125 8040.18115234375 -8594.8173828125 8040.18115234375 Z" stroke="none" fill="#9db3bd"/>
  </g>
</svg>
