<svg id="icEdit" xmlns="http://www.w3.org/2000/svg" width="24" height="24" viewBox="0 0 24 24">
  <rect id="Retângulo_825" data-name="Retângulo 825" width="24" height="24" fill="#fff" opacity="0"/>
  <path id="Caminho_940" data-name="Caminho 940" d="M20,9.65V16a3.009,3.009,0,0,1-3,3H7a3.009,3.009,0,0,1-3-3V7A3.009,3.009,0,0,1,7,4h7.35l.99-1H7A4,4,0,0,0,3,7v9a4,4,0,0,0,4,4H17a4,4,0,0,0,4-4V8.66Z" transform="translate(0 1)" fill="#9db3bd"/>
  <path id="Caminho_941" data-name="Caminho 941" d="M8.772,13.1,8.161,15.9l2.724-.661,6.872-6.873L15.636,6.241Zm-.914-.5,7.778-7.778,3.536,3.535-7.778,7.779-4.552,1.1Z" transform="translate(0 1)" fill="#9db3bd"/>
  <path id="Caminho_942" data-name="Caminho 942" d="M18.465,9.07,14.929,5.535l2.122-2.122a2.05,2.05,0,0,1,2.828,0l.707.707a2,2,0,0,1,0,2.829ZM16.343,5.535l2.122,2.121,1.414-1.414a1,1,0,0,0,0-1.415l-.707-.707a1.025,1.025,0,0,0-1.414,0Z" transform="translate(0 1)" fill="#9db3bd"/>
</svg>
