<svg id="icAlarmDevice" xmlns="http://www.w3.org/2000/svg" width="24" height="24" viewBox="0 0 24 24">
  <rect id="Retângulo_386" data-name="Retângulo 386" width="24" height="24" fill="#fff" opacity="0"/>
  <g id="ic_alarmlocal" transform="translate(4.184 0.887)">
    <path id="Caminho_32" data-name="Caminho 32" d="M3.5,14.437V9.758A5.773,5.773,0,0,1,6.232,4.881a6.033,6.033,0,0,1,6-.159A5.851,5.851,0,0,1,14.41,6.789a5.7,5.7,0,0,1,.832,2.951v4.7Z" transform="translate(-1.556 -0.373)" fill="none" stroke="#9db3bd" stroke-width="1" fill-rule="evenodd"/>
    <path id="Caminho_33" data-name="Caminho 33" d="M3.779,12H15.871a1.3,1.3,0,0,1,1.269,1l.466,1.954a1.3,1.3,0,0,1-1.269,1.607H3.315a1.3,1.3,0,0,1-1.269-1.607L2.511,13A1.3,1.3,0,0,1,3.779,12Z" transform="translate(-2.01 2.065)" fill="none" stroke="#9db3bd" stroke-width="1" fill-rule="evenodd"/>
  </g>
</svg>
