<svg id="icVisility" xmlns="http://www.w3.org/2000/svg" width="24" height="24" viewBox="0 0 24 24">
  <path id="Caminho_860" data-name="Caminho 860" d="M0,0H24V24H0Z" fill="none"/>
  <path id="on" d="M3.42,3.18l-.7.71L5.44,6.62,5,6.97a11.2,11.2,0,0,0-3.46,4.56,11.284,11.284,0,0,0,10.46,7,10.628,10.628,0,0,0,4.14-.79l.3-.12,3.3,3.3.7-.7Zm5.59,8.16.12-1.03,3.95,3.95-.83.23a.852.852,0,0,1-.23.03A3,3,0,0,1,9,11.53C9,11.48,9.01,11.38,9.01,11.34Zm5.87,5.79a11.121,11.121,0,0,1-2.88.4h-.03a10.326,10.326,0,0,1-9.24-5.79l-.11-.22.11-.22A10.4,10.4,0,0,1,5.81,7.6l.35-.26L8.45,9.63l-.13.31A4.1,4.1,0,0,0,8,11.53a4.012,4.012,0,0,0,4,4h.01a3.958,3.958,0,0,0,1.56-.32l.31-.14,1.83,1.83ZM14.83,8.7a3.923,3.923,0,0,0-2.82-1.17H12l1.29,1.29a2.97,2.97,0,0,1,1.41,1.41l1.29,1.29v-.01A3.948,3.948,0,0,0,14.83,8.7ZM9.32,4.84l.85.86a10.19,10.19,0,0,1,1.82-.17h.04a10.317,10.317,0,0,1,9.24,5.78l.11.22-.11.21a9.808,9.808,0,0,1-2.13,2.92l.69.7a11.351,11.351,0,0,0,2.63-3.83A11.362,11.362,0,0,0,9.32,4.84Z" transform="translate(0 -0.05)" fill="#9db3bd"/>
</svg>
