<svg id="icDelete" xmlns="http://www.w3.org/2000/svg" width="24" height="24" viewBox="0 0 24 24">
  <rect id="Retângulo_824" data-name="Retângulo 824" width="24" height="24" fill="#fff" opacity="0"/>
  <path id="Caminho_936" data-name="Caminho 936" d="M17,5H15a2.006,2.006,0,0,0-2-2H11A2.006,2.006,0,0,0,9,5H7A2.006,2.006,0,0,0,5,7V8.5a.5.5,0,0,0,.5.5H6V19a2.006,2.006,0,0,0,2,2h8a2.006,2.006,0,0,0,2-2V9h.5a.5.5,0,0,0,.5-.5V7a2.006,2.006,0,0,0-2-2M11,4h2a1,1,0,0,1,1,1H10a1,1,0,0,1,1-1m6,15a1,1,0,0,1-1,1H8a1,1,0,0,1-1-1V9H17ZM18,8H6V7A1,1,0,0,1,7,6H17a1,1,0,0,1,1,1Z" fill="#9db3bd"/>
  <path id="Caminho_937" data-name="Caminho 937" d="M10,11.5v6a.5.5,0,0,1-1,0v-6a.5.5,0,0,1,1,0" fill="#9db3bd"/>
  <path id="Caminho_938" data-name="Caminho 938" d="M12.5,11.5v6a.5.5,0,0,1-1,0v-6a.5.5,0,0,1,1,0" fill="#9db3bd"/>
  <path id="Caminho_939" data-name="Caminho 939" d="M15,11.5v6a.5.5,0,0,1-1,0v-6a.5.5,0,0,1,1,0" fill="#9db3bd"/>
</svg>
