<svg id="icUnmarkBookmark" xmlns="http://www.w3.org/2000/svg" width="24" height="24" viewBox="0 0 24 24">
  <path id="Shape" d="M0,0H24V24H0Z" fill="none"/>
  <path id="Caminho_1287" data-name="Caminho 1287" d="M-2512.391-268.331a.5.5,0,0,1-.293-.1.5.5,0,0,1-.182-.56l.24-.737,1.479-1.315-.291.894,5.1-3.714a.5.5,0,0,1,.294-.1.5.5,0,0,1,.294.1l5.1,3.714-1.951-5.993a.5.5,0,0,1,.185-.562l5.106-3.633h-3.387l1.125-1h3.827a.5.5,0,0,1,.477.348.5.5,0,0,1-.187.559l-6.083,4.328,2.316,7.111a.5.5,0,0,1-.181.559.5.5,0,0,1-.294.1.5.5,0,0,1-.294-.1l-6.056-4.408-6.056,4.408A.5.5,0,0,1-2512.391-268.331Zm1.6-7.039v0l.235-.723-6.081-4.328a.5.5,0,0,1-.186-.559.5.5,0,0,1,.476-.348h7.467l2.36-7.321a.5.5,0,0,1,.476-.346.5.5,0,0,1,.476.346l2.164,6.716-.817.726-1.823-5.658-2,6.19a.5.5,0,0,1-.476.346h-6.266l5.1,3.633a.5.5,0,0,1,.162.194l-1.274,1.133Z" transform="translate(2518 290.675)" fill="#9db3bd"/>
  <line id="Linha_220" data-name="Linha 220" y1="16" x2="18" transform="translate(2.5 5.5)" fill="none" stroke="#9db3bd" stroke-linecap="round" stroke-width="1"/>
</svg>
